HIERARCHY
ROOT hip
{
  OFFSET 0 0 0
  CHANNELS 6 Xposition Yposition Zposition Zrotation Yrotation Xrotation
  JOINT abdomen
  {
    OFFSET 0 20.6881 -0.73152
    CHANNELS 3 Zrotation Xrotation Yrotation
    JOINT chest
    {
      OFFSET 0 11.7043 -0.48768
      CHANNELS 3 Zrotation Xrotation Yrotation
      JOINT neck
      {
        OFFSET 0 22.1894 -2.19456
        CHANNELS 3 Zrotation Xrotation Yrotation
        JOINT head
        {
          OFFSET -0.24384 7.07133 1.2192
          CHANNELS 3 Zrotation Xrotation Yrotation
          JOINT leftEye
          {
            OFFSET 4.14528 8.04674 8.04672
            CHANNELS 3 Zrotation Xrotation Yrotation
            End Site
            {
              OFFSET 1 0 0
            }
          }
          JOINT rightEye
          {
            OFFSET -3.6576 8.04674 8.04672
            CHANNELS 3 Zrotation Xrotation Yrotation
            End Site
            {
              OFFSET 1 0 0
            }
          }
        }
      }
      JOINT rCollar
      {
        OFFSET -2.68224 19.2634 -4.8768
        CHANNELS 3 Zrotation Xrotation Yrotation
        JOINT rShldr
        {
          OFFSET -8.77824 -1.95073 1.46304
          CHANNELS 3 Zrotation Xrotation Yrotation
          JOINT rForeArm
          {
            OFFSET -28.1742 -1.7115 0.48768
            CHANNELS 3 Zrotation Xrotation Yrotation
            JOINT rHand
            {
              OFFSET -22.5879 0.773209 7.07136
              CHANNELS 3 Zrotation Xrotation Yrotation
              JOINT rThumb1
              {
                OFFSET -1.2192 -0.487915 3.41376
                CHANNELS 3 Zrotation Xrotation Yrotation
                JOINT rThumb2
                {
                  OFFSET -3.37035 -0.52449 3.41376
                  CHANNELS 3 Zrotation Xrotation Yrotation
                  End Site
                  {
                    OFFSET -1.78271 -1.18214 1.43049
                  }
                }
              }
              JOINT rIndex1
              {
                OFFSET -7.75947 0.938293 5.60832
                CHANNELS 3 Zrotation Xrotation Yrotation
                JOINT rIndex2
                {
                  OFFSET -2.54057 -0.884171 1.56538
                  CHANNELS 3 Zrotation Xrotation Yrotation
                  End Site
                  {
                    OFFSET -1.62519 -0.234802 1.16502
                  }
                }
              }
              JOINT rMid1
              {
                OFFSET -8.24714 1.18213 3.41376
                CHANNELS 3 Zrotation Xrotation Yrotation
                JOINT rMid2
                {
                  OFFSET -3.10165 -0.590103 1.0647
                  CHANNELS 3 Zrotation Xrotation Yrotation
                  End Site
                  {
                    OFFSET -2.48547 -0.328903 0.83742
                  }
                }
              }
              JOINT rRing1
              {
                OFFSET -8.82822 0.546677 1.51678
                CHANNELS 3 Zrotation Xrotation Yrotation
                JOINT rRing2
                {
                  OFFSET -2.60934 -0.819778 -0.0198488
                  CHANNELS 3 Zrotation Xrotation Yrotation
                  End Site
                  {
                    OFFSET -2.33842 -0.294052 0.168128
                  }
                }
              }
              JOINT rPinky1
              {
                OFFSET -8.27202 -0.0477905 -0.4584
                CHANNELS 3 Zrotation Xrotation Yrotation
                JOINT rPinky2
                {
                  OFFSET -1.82734 -0.647385 -0.700984
                  CHANNELS 3 Zrotation Xrotation Yrotation
                  End Site
                  {
                    OFFSET -1.69225 -0.51767 -0.607171
                  }
                }
              }
            }
          }
        }
      }
      JOINT lCollar
      {
        OFFSET 2.68224 19.2634 -4.8768
        CHANNELS 3 Zrotation Xrotation Yrotation
        JOINT lShldr
        {
          OFFSET 8.77824 -1.95073 1.46304
          CHANNELS 3 Zrotation Xrotation Yrotation
          JOINT lForeArm
          {
            OFFSET 28.1742 -1.7115 0.48768
            CHANNELS 3 Zrotation Xrotation Yrotation
            JOINT lHand
            {
              OFFSET 22.5879 0.773209 7.07136
              CHANNELS 3 Zrotation Xrotation Yrotation
              JOINT lThumb1
              {
                OFFSET 1.2192 -0.487915 3.41376
                CHANNELS 3 Zrotation Xrotation Yrotation
                JOINT lThumb2
                {
                  OFFSET 3.37035 -0.52449 3.41376
                  CHANNELS 3 Zrotation Xrotation Yrotation
                  End Site
                  {
                    OFFSET 1.78271 -1.18214 1.43049
                  }
                }
              }
              JOINT lIndex1
              {
                OFFSET 7.75947 0.938293 5.60832
                CHANNELS 3 Zrotation Xrotation Yrotation
                JOINT lIndex2
                {
                  OFFSET 2.54057 -0.884171 1.56538
                  CHANNELS 3 Zrotation Xrotation Yrotation
                  End Site
                  {
                    OFFSET 1.62519 -0.234802 1.16502
                  }
                }
              }
              JOINT lMid1
              {
                OFFSET 8.24714 1.18213 3.41376
                CHANNELS 3 Zrotation Xrotation Yrotation
                JOINT lMid2
                {
                  OFFSET 3.10165 -0.590103 1.0647
                  CHANNELS 3 Zrotation Xrotation Yrotation
                  End Site
                  {
                    OFFSET 2.48547 -0.328903 0.83742
                  }
                }
              }
              JOINT lRing1
              {
                OFFSET 8.82822 0.546677 1.51678
                CHANNELS 3 Zrotation Xrotation Yrotation
                JOINT lRing2
                {
                  OFFSET 2.60934 -0.819778 -0.0198488
                  CHANNELS 3 Zrotation Xrotation Yrotation
                  End Site
                  {
                    OFFSET 2.33842 -0.294052 0.168128
                  }
                }
              }
              JOINT lPinky1
              {
                OFFSET 8.27202 -0.0477905 -0.4584
                CHANNELS 3 Zrotation Xrotation Yrotation
                JOINT lPinky2
                {
                  OFFSET 1.82734 -0.647385 -0.700984
                  CHANNELS 3 Zrotation Xrotation Yrotation
                  End Site
                  {
                    OFFSET 1.69225 -0.51767 -0.607171
                  }
                }
              }
            }
          }
        }
      }
    }
  }
  JOINT rButtock
  {
    OFFSET -8.77824 4.35084 1.2192
    CHANNELS 3 Zrotation Xrotation Yrotation
    JOINT rThigh
    {
      OFFSET 0 -1.70687 -2.19456
      CHANNELS 3 Zrotation Xrotation Yrotation
      JOINT rShin
      {
        OFFSET 0 -36.8199 0.73152
        CHANNELS 3 Zrotation Xrotation Yrotation
        JOINT rFoot
        {
          OFFSET 0.73152 -45.1104 -5.12064
          CHANNELS 3 Zrotation Xrotation Yrotation
          End Site
          {
            OFFSET -1.1221 -3.69964 12.103
          }
        }
      }
    }
  }
  JOINT lButtock
  {
    OFFSET 8.77824 4.35084 1.2192
    CHANNELS 3 Zrotation Xrotation Yrotation
    JOINT lThigh
    {
      OFFSET 0 -1.70687 -2.19456
      CHANNELS 3 Zrotation Xrotation Yrotation
      JOINT lShin
      {
        OFFSET 0 -36.8199 0.73152
        CHANNELS 3 Zrotation Xrotation Yrotation
        JOINT lFoot
        {
          OFFSET -0.73152 -45.1104 -5.12064
          CHANNELS 3 Zrotation Xrotation Yrotation
          End Site
          {
            OFFSET 1.1221 -3.69964 12.103
          }
        }
      }
    }
  }
}
MOTION
Frames:	7
Frame Time:	0.00833333
98.3165 85.1388 127.815 0.0 0.0 0.0 0.410575 -0.00336394 0.0117802 0.113455 -0.0053947 0.0196586 2.2472e-15 1.59028e-15 -1.26336e-23 6.66395e-15 1.59028e-14 -4.65902e-18 -0.0 0.0 0.0 -0.0 0.0 0.0 1.19144e-15 4.27076e-18 9.93923e-17 2.46261e-14 9.93923e-17 1.19271e-15 4.01694e-13 -1.13108e-13 6.36111e-15 4.57283e-12 1.51201e-13 1.59028e-14 1.07875e-11 8.22814e-14 3.81667e-14 1.86138e-11 1.43125e-13 5.80451e-14 1.0792e-11 8.07066e-14 3.18055e-14 7.73091 5.47488 0.417314 1.07855e-11 8.15017e-14 3.81667e-14 2.90554 0.965183 0.102902 1.079e-11 8.16011e-14 3.26007e-14 10.2786 0.731801 0.0259123 1.07767e-11 8.46823e-14 3.49861e-14 2.22167 -0.733487 -0.20892 9.95259e-16 3.88251e-18 -9.93923e-17 2.15025e-14 -8.07563e-17 -7.95139e-16 3.9752e-13 1.24439e-13 -1.90833e-14 4.57085e-12 -9.59384e-14 2.8625e-14 1.078e-11 6.52386e-14 2.22639e-14 1.86301e-11 1.11319e-13 5.00937e-14 1.07777e-11 6.36111e-14 4.13472e-14 -7.73091 5.47488 -0.417314 1.0781e-11 6.5102e-14 3.18055e-14 -2.90554 0.965183 -0.102902 1.07758e-11 6.47044e-14 3.18055e-14 -10.2786 0.731801 -0.0259123 1.079e-11 6.99722e-14 2.8625e-14 -2.22167 -0.733487 0.20892 -2.03217e-16 0.0 -3.88251e-19 0.770893 -4.17179 -0.0656915 -0.00265692 2.00547 -0.0182886 -0.462128 2.16691 0.096141 2.03217e-16 0.0 3.88251e-19 -0.142947 -2.55997 0.0260622 0.00716112 -0.91406 0.0621535 0.453476 3.47456 -0.121182
97.8382 83.6521 123.174 174.104 -1.4858 -154.431 -3.07015 -8.99934 -0.958733 1.40299 4.39396 -0.314492 -0.0259321 2.5668 -0.260762 1.27413 -7.50827 -0.242181 -0.0 0.0 0.0 -0.0 0.0 0.0 1.11589e-13 1.70101e-13 8.09547e-14 22.6555 1.52428 -1.5464 -4.56813 -2.14995 7.05261 -3.08939e-06 0.0988048 0.013886 -1.83452e-09 2.04426e-09 -1.0827e-09 -3.17286e-09 3.53647e-09 -1.86778e-09 -1.83452e-09 2.04426e-09 -1.08271e-09 7.73091 5.47488 0.417314 -1.83453e-09 2.04426e-09 -1.0827e-09 2.90554 0.965183 0.102902 -1.83452e-09 2.04426e-09 -1.08271e-09 10.2786 0.731801 0.0259123 -1.83453e-09 2.04427e-09 -1.0827e-09 2.22167 -0.733487 -0.20892 1.11392e-13 1.701e-13 8.07866e-14 -21.0138 5.34476 -0.322116 3.38963 -1.40518 -5.43189 -0.003699 1.35411 -0.190118 -2.04872e-09 -5.90589e-10 8.34439e-10 -3.53552e-09 -1.01859e-09 1.45262e-09 -2.04873e-09 -5.90591e-10 8.34455e-10 -7.73091 5.47488 -0.417314 -2.04872e-09 -5.90589e-10 8.34445e-10 -2.90554 0.965183 -0.102902 -2.04873e-09 -5.9059e-10 8.34445e-10 -10.2786 0.731801 -0.0259123 -2.04871e-09 -5.90585e-10 8.34441e-10 -2.22167 -0.733487 0.20892 -2.03217e-16 0.0 -3.88251e-19 -0.289807 -10.7216 0.800341 0.00066745 3.77198 0.0305114 -0.614485 -1.78583 -0.933086 2.03217e-16 0.0 3.88251e-19 -2.26745 -9.10327 -2.40492 0.00828295 1.5389 0.030593 0.504639 1.49435 -1.0352
97.8239 83.6512 123.195 174.038 -1.4487 -154.314 -7.10004 -18.5031 -2.06745 2.82185 9.046 -0.674047 -0.0270676 5.27726 -0.536825 2.5508 -15.4481 -0.509652 -0.0 0.0 0.0 -0.0 0.0 0.0 2.33601e-13 3.6348e-13 1.72784e-13 46.6956 3.12493 -3.18373 -8.8234 -4.31187 14.5353 -7.52356e-05 0.215501 0.0302867 -3.90378e-09 4.35937e-09 -2.29787e-09 -6.75169e-09 7.54149e-09 -3.96405e-09 -3.90377e-09 4.35937e-09 -2.29787e-09 7.73091 5.47488 0.417314 -3.90378e-09 4.35937e-09 -2.29787e-09 2.90554 0.965183 0.102902 -3.90378e-09 4.35937e-09 -2.29787e-09 10.2786 0.731801 0.0259123 -3.90379e-09 4.35938e-09 -2.29787e-09 2.22167 -0.733487 -0.20892 2.334e-13 3.63478e-13 1.72651e-13 -43.1626 10.9826 -0.668147 6.67514 -2.84257 -11.1696 0.00221105 2.7989 -0.39333 -4.36047e-09 -1.25214e-09 1.78487e-09 -7.52493e-09 -2.15955e-09 3.10692e-09 -4.36048e-09 -1.25214e-09 1.78488e-09 -7.73091 5.47488 -0.417314 -4.36047e-09 -1.25214e-09 1.78487e-09 -2.90554 0.965183 -0.102902 -4.36047e-09 -1.25214e-09 1.78487e-09 -10.2786 0.731801 -0.0259123 -4.36046e-09 -1.25213e-09 1.78486e-09 -2.22167 -0.733487 0.20892 -2.03217e-16 0.0 -3.88251e-19 -1.18914 -17.6408 1.76899 0.000723136 5.63951 0.0823562 -0.931056 -5.95879 -2.0336 2.03217e-16 0.0 3.88251e-19 -5.14201 -15.9772 -5.11231 0.0124634 4.13193 -0.00280176 0.490124 -0.598477 -2.00035
97.8107 83.6525 123.216 173.96 -1.4095 -154.2 -11.0399 -26.9586 -3.2139 4.13949 13.1909 -1.00658 -0.00716443 7.69975 -0.788611 3.6186 -22.5231 -0.779795 -0.0 0.0 0.0 -0.0 0.0 0.0 3.32384e-13 5.10294e-13 2.42665e-13 68.2137 4.5595 -4.65232 -12.1492 -6.05978 21.2674 -0.000152946 0.296414 0.0416586 -5.52514e-09 6.13263e-09 -3.24818e-09 -9.55581e-09 1.06091e-08 -5.60344e-09 -5.52513e-09 6.13262e-09 -3.24818e-09 7.73091 5.47488 0.417314 -5.52515e-09 6.13263e-09 -3.24819e-09 2.90554 0.965183 0.102902 -5.52514e-09 6.13263e-09 -3.24818e-09 10.2786 0.731801 0.0259123 -5.52515e-09 6.13263e-09 -3.24818e-09 2.22167 -0.733487 -0.20892 3.32186e-13 5.10292e-13 2.42558e-13 -62.8549 16.0322 -1.00108 9.37985 -4.06425 -16.333 0.0159193 4.06214 -0.571629 -6.16773e-09 -1.7719e-09 2.50327e-09 -1.06438e-08 -3.05599e-09 4.35776e-09 -6.16773e-09 -1.7719e-09 2.50328e-09 -7.73091 5.47488 -0.417314 -6.16773e-09 -1.7719e-09 2.50327e-09 -2.90554 0.965183 -0.102902 -6.16773e-09 -1.7719e-09 2.50327e-09 -10.2786 0.731801 -0.0259123 -6.16772e-09 -1.77189e-09 2.50326e-09 -2.22167 -0.733487 0.20892 -2.03217e-16 0.0 -3.88251e-19 -1.76841 -23.8003 2.72176 -0.00177662 7.30497 0.128937 -1.34965 -9.67871 -3.03326 2.03217e-16 0.0 3.88251e-19 -8.29222 -22.0304 -7.74446 0.0186507 6.44482 -0.0327523 0.417459 -2.46227 -2.86526
97.8153 83.6502 123.224 174.0 -1.4462 -154.21 -14.0128 -32.8244 -4.15859 5.09173 16.0697 -1.24884 0.0160073 9.40287 -0.973785 4.30874 -27.4378 -1.00759 -0.0 0.0 0.0 -0.0 0.0 0.0 3.731e-13 5.40695e-13 2.57675e-13 83.2544 5.59137 -5.68689 -14.2306 -7.14211 26.0194 -0.000101636 0.287871 0.040458 -6.02677e-09 6.55125e-09 -3.53635e-09 -1.04232e-08 1.13333e-08 -6.10066e-09 -6.02676e-09 6.55124e-09 -3.53635e-09 7.73091 5.47488 0.417314 -6.02677e-09 6.55125e-09 -3.53635e-09 2.90554 0.965183 0.102902 -6.02677e-09 6.55125e-09 -3.53635e-09 10.2786 0.731801 0.0259123 -6.02678e-09 6.55125e-09 -3.53635e-09 2.22167 -0.733487 -0.20892 3.72914e-13 5.40693e-13 2.57575e-13 -76.5349 19.6129 -1.26966 11.176 -4.88727 -20.0261 0.0291969 4.87171 -0.686345 -6.71376e-09 -1.9372e-09 2.64161e-09 -1.15864e-08 -3.34111e-09 4.59994e-09 -6.71376e-09 -1.9372e-09 2.64162e-09 -7.73091 5.47488 -0.417314 -6.71375e-09 -1.9372e-09 2.64161e-09 -2.90554 0.965183 -0.102902 -6.71376e-09 -1.9372e-09 2.64161e-09 -10.2786 0.731801 -0.0259123 -6.71375e-09 -1.9372e-09 2.6416e-09 -2.22167 -0.733487 0.20892 -2.03217e-16 0.0 -3.88251e-19 -2.01547 -28.0796 3.46515 -0.00422494 8.46529 0.161638 -1.71667 -12.2788 -3.73675 2.03217e-16 0.0 3.88251e-19 -10.8385 -26.1811 -9.75082 0.0241127 8.05733 -0.0537628 0.332888 -3.75763 -3.47492
97.8203 83.6496 123.219 174.04 -1.5431 -154.243 -15.2116 -35.0846 -4.57246 5.48248 17.1729 -1.34883 0.0228769 10.1027 -1.06469 4.53519 -29.3293 -1.14573 -0.0 0.0 0.0 -0.0 0.0 0.0 3.24463e-13 3.88214e-13 1.85114e-13 89.1466 6.07903 -6.10991 -15.0186 -7.54785 27.9433 0.000130848 0.130797 0.0183826 -4.7409e-09 4.82083e-09 -2.81007e-09 -8.1987e-09 8.33962e-09 -4.84818e-09 -4.74088e-09 4.82083e-09 -2.81007e-09 7.73091 5.47488 0.417314 -4.7409e-09 4.82083e-09 -2.81007e-09 2.90554 0.965183 0.102902 -4.74089e-09 4.82083e-09 -2.81007e-09 10.2786 0.731801 0.0259123 -4.7409e-09 4.82083e-09 -2.81006e-09 2.22167 -0.733487 -0.20892 3.24307e-13 3.88213e-13 1.84989e-13 -81.8663 21.1394 -1.4208 11.9369 -5.25243 -21.6473 0.0330894 5.03484 -0.709554 -5.26016e-09 -1.50614e-09 1.8922e-09 -9.07831e-09 -2.59744e-09 3.29816e-09 -5.26017e-09 -1.50614e-09 1.89221e-09 -7.73091 5.47488 -0.417314 -5.26016e-09 -1.50614e-09 1.89219e-09 -2.90554 0.965183 -0.102902 -5.26017e-09 -1.50614e-09 1.89219e-09 -10.2786 0.731801 -0.0259123 -5.26016e-09 -1.50614e-09 1.89219e-09 -2.22167 -0.733487 0.20892 -2.03217e-16 0.0 -3.88251e-19 -2.0389 -29.7371 3.79277 -0.00348537 8.91811 0.174478 -1.87067 -13.3275 -3.99127 2.03217e-16 0.0 3.88251e-19 -11.8858 -27.7764 -10.56 0.0258606 8.6913 -0.0619371 0.290228 -4.26137 -3.72818
97.8296 83.6516 123.21 174.075 -1.5211 -154.311 -15.0225 -34.7778 -4.52269 5.45913 17.0084 -1.34218 0.0123546 10.086 -1.0868 4.45439 -29.0618 -1.20537 -0.0 0.0 0.0 -0.0 0.0 0.0 2.12388e-13 1.0605e-13 5.05162e-14 88.4854 6.18015 -6.09322 -14.9813 -7.54435 27.8321 0.000224149 -0.13126 -0.0184468 -2.1887e-09 1.56742e-09 -1.36335e-09 -3.78391e-09 2.71118e-09 -2.3531e-09 -2.18869e-09 1.56741e-09 -1.36335e-09 7.73091 5.47488 0.417314 -2.1887e-09 1.56741e-09 -1.36335e-09 2.90554 0.965183 0.102902 -2.18869e-09 1.56741e-09 -1.36335e-09 10.2786 0.731801 0.0259123 -2.18871e-09 1.56742e-09 -1.36334e-09 2.22167 -0.733487 -0.20892 2.12274e-13 1.06052e-13 5.03422e-14 -81.2523 21.1992 -1.47992 12.0138 -5.32084 -21.7818 0.0289871 4.7368 -0.667321 -2.3894e-09 -6.53866e-10 5.12269e-10 -4.12474e-09 -1.12715e-09 8.99843e-10 -2.38941e-09 -6.53869e-10 5.12279e-10 -7.73091 5.47488 -0.417314 -2.3894e-09 -6.5387e-10 5.1227e-10 -2.90554 0.965183 -0.102902 -2.38941e-09 -6.53871e-10 5.1227e-10 -10.2786 0.731801 -0.0259123 -2.3894e-09 -6.5387e-10 5.12262e-10 -2.22167 -0.733487 0.20892 -2.03217e-16 0.0 -3.88251e-19 -1.9678 -29.5266 3.78416 0.000197023 8.8656 0.173001 -1.83932 -13.2704 -3.91458 2.03217e-16 0.0 3.88251e-19 -11.6952 -27.58 -10.4183 0.0243578 8.62622 -0.0608417 0.291541 -4.20065 -3.72487
